<svg width="104" height="104" viewBox="0 0 104 104" fill="none" xmlns="http://www.w3.org/2000/svg">
<rect x="48" y="40" width="8" height="8" fill="white"/>
<rect x="48" y="32" width="8" height="8" fill="white"/>
<rect x="48" y="24" width="8" height="8" fill="white"/>
<rect x="48" y="16" width="8" height="8" fill="white"/>
<rect x="48" y="8" width="8" height="8" fill="white"/>
<rect x="48" width="8" height="8" fill="white"/>
<rect x="48" y="56" width="8" height="8" fill="white"/>
<rect x="48" y="64" width="8" height="8" fill="white"/>
<rect x="48" y="72" width="8" height="8" fill="white"/>
<rect x="48" y="80" width="8" height="8" fill="white"/>
<rect x="48" y="88" width="8" height="8" fill="white"/>
<rect x="48" y="96" width="8" height="8" fill="white"/>
<rect x="56" y="48" width="8" height="8" fill="white"/>
<rect x="56" y="56" width="8" height="8" fill="#4DFCED"/>
<rect x="56" y="40" width="8" height="8" fill="#4DFCED"/>
<rect x="40" y="40" width="8" height="8" fill="#4DFCED"/>
<rect x="32" y="32" width="8" height="8" fill="#4DFCED"/>
<rect x="24" y="24" width="8" height="8" fill="#4DFCED"/>
<rect x="16" y="16" width="8" height="8" fill="#4DFCED"/>
<rect x="8" y="8" width="8" height="8" fill="#4DFCED"/>
<rect x="64" y="32" width="8" height="8" fill="#4DFCED"/>
<rect x="72" y="24" width="8" height="8" fill="#4DFCED"/>
<rect x="80" y="16" width="8" height="8" fill="#4DFCED"/>
<rect x="88" y="8" width="8" height="8" fill="#4DFCED"/>
<rect x="40" y="56" width="8" height="8" fill="#4DFCED"/>
<rect x="32" y="64" width="8" height="8" fill="#4DFCED"/>
<rect x="24" y="72" width="8" height="8" fill="#4DFCED"/>
<rect x="16" y="80" width="8" height="8" fill="#4DFCED"/>
<rect x="8" y="88" width="8" height="8" fill="#4DFCED"/>
<rect x="64" y="64" width="8" height="8" fill="#4DFCED"/>
<rect x="72" y="72" width="8" height="8" fill="#4DFCED"/>
<rect x="64" y="80" width="8" height="8" fill="white"/>
<rect x="56" y="88" width="8" height="8" fill="white"/>
<rect x="40" y="88" width="8" height="8" fill="white"/>
<rect x="32" y="80" width="8" height="8" fill="white"/>
<rect x="16" y="64" width="8" height="8" fill="white"/>
<rect x="8" y="56" width="8" height="8" fill="white"/>
<rect x="8" y="40" width="8" height="8" fill="white"/>
<rect x="16" y="32" width="8" height="8" fill="white"/>
<rect x="32" y="16" width="8" height="8" fill="white"/>
<rect x="40" y="8" width="8" height="8" fill="white"/>
<rect x="56" y="8" width="8" height="8" fill="white"/>
<rect x="64" y="16" width="8" height="8" fill="white"/>
<rect x="80" y="64" width="8" height="8" fill="white"/>
<rect x="88" y="56" width="8" height="8" fill="white"/>
<rect x="88" y="40" width="8" height="8" fill="white"/>
<rect x="80" y="32" width="8" height="8" fill="white"/>
<rect x="80" y="80" width="8" height="8" fill="#4DFCED"/>
<rect x="88" y="88" width="8" height="8" fill="#4DFCED"/>
<rect x="64" y="48" width="8" height="8" fill="white"/>
<rect x="72" y="48" width="8" height="8" fill="white"/>
<rect x="80" y="48" width="8" height="8" fill="white"/>
<rect x="88" y="48" width="8" height="8" fill="white"/>
<rect x="96" y="48" width="8" height="8" fill="white"/>
<rect y="48" width="8" height="8" fill="white"/>
<rect x="8" y="48" width="8" height="8" fill="white"/>
<rect x="16" y="48" width="8" height="8" fill="white"/>
<rect x="24" y="48" width="8" height="8" fill="white"/>
<rect x="32" y="48" width="8" height="8" fill="white"/>
<rect x="40" y="48" width="8" height="8" fill="white"/>
</svg>
